<svg width="36" height="36" viewBox="0 0 36 36" fill="none" xmlns="http://www.w3.org/2000/svg">
<rect width="36" height="36" rx="10" fill="#F7F7F7"/>
<path d="M14.5 26.5C13.4 26.5 12.4583 26.1083 11.675 25.325C10.8917 24.5417 10.5 23.6 10.5 22.5V14.325C9.91667 14.1083 9.43767 13.746 9.063 13.238C8.68833 12.73 8.50067 12.1507 8.5 11.5C8.5 10.6667 8.79167 9.95833 9.375 9.375C9.95833 8.79167 10.6667 8.5 11.5 8.5C12.3333 8.5 13.0417 8.79167 13.625 9.375C14.2083 9.95833 14.5 10.6667 14.5 11.5C14.5 12.15 14.3127 12.7293 13.938 13.238C13.5633 13.7467 13.084 14.109 12.5 14.325V22.5C12.5 23.05 12.696 23.521 13.088 23.913C13.48 24.305 13.9507 24.5007 14.5 24.5C15.0493 24.4993 15.5203 24.3037 15.913 23.913C16.3057 23.5223 16.5013 23.0513 16.5 22.5V12.5C16.5 11.4 16.8917 10.4583 17.675 9.675C18.4583 8.89167 19.4 8.5 20.5 8.5C21.6 8.5 22.5417 8.89167 23.325 9.675C24.1083 10.4583 24.5 11.4 24.5 12.5V20.675C25.0833 20.8917 25.5627 21.2543 25.938 21.763C26.3133 22.2717 26.5007 22.8507 26.5 23.5C26.5 24.3333 26.2083 25.0417 25.625 25.625C25.0417 26.2083 24.3333 26.5 23.5 26.5C22.6667 26.5 21.9583 26.2083 21.375 25.625C20.7917 25.0417 20.5 24.3333 20.5 23.5C20.5 22.85 20.6877 22.2667 21.063 21.75C21.4383 21.2333 21.9173 20.875 22.5 20.675V12.5C22.5 11.95 22.3043 11.4793 21.913 11.088C21.5217 10.6967 21.0507 10.5007 20.5 10.5C19.9493 10.4993 19.4787 10.6953 19.088 11.088C18.6973 11.4807 18.5013 11.9513 18.5 12.5V22.5C18.5 23.6 18.1083 24.5417 17.325 25.325C16.5417 26.1083 15.6 26.5 14.5 26.5Z" fill="#2AA64C"/>
</svg>
