<svg width="16" height="16" viewBox="0 0 16 16" fill="none" xmlns="http://www.w3.org/2000/svg">
<path d="M15.3333 8C14.9647 8 14.6667 8.29799 14.6667 8.66666V10.6667H10.6093L6.66667 6.724V1.33333H7.33333C7.70133 1.33333 8 1.03533 8 0.666662C8 0.297995 7.70133 -4.72006e-06 7.33333 -4.72006e-06H3.33333C1.49533 -4.72006e-06 0 1.49533 0 3.33333V12.6667C0 14.5047 1.49533 16 3.33333 16H12.6667C14.5047 16 16 14.5047 16 12.6667V8.66666C16 8.29799 15.702 8 15.3333 8ZM3.33333 1.33333H5.33333V6.6L1.33333 8.73266V3.33333C1.33333 2.23066 2.23067 1.33333 3.33333 1.33333ZM1.33333 12.6667V10.2447L5.878 7.82066L9.45267 11.3953L7 14.666H3.33333C2.23067 14.666 1.33333 13.7693 1.33333 12.6667ZM12.6667 14.6667H8.66667L10.6667 12H14.6667V12.6667C14.6667 13.7693 13.7693 14.6667 12.6667 14.6667ZM10.9673 7.45933C11.3433 7.828 11.8387 8.012 12.3333 8.01133C12.828 8.01133 13.3227 7.828 13.6993 7.45933L14.926 6.25866C15.6187 5.56666 16 4.646 16 3.666C16 2.686 15.6187 1.76533 14.926 1.07333C14.2333 0.380662 13.3127 -0.000671387 12.3333 -0.000671387C11.354 -0.000671387 10.4327 0.380662 9.74067 1.07333C9.048 1.76533 8.66667 2.686 8.66667 3.666C8.66667 4.646 9.048 5.56666 9.746 6.26333L10.9673 7.45866V7.45933ZM10.6833 2.01666C11.124 1.576 11.7093 1.33333 12.3333 1.33333C12.9573 1.33333 13.542 1.576 13.9833 2.01666C14.4247 2.45733 14.6667 3.04333 14.6667 3.66666C14.6667 4.29 14.424 4.87533 13.988 5.31133L12.7667 6.50666C12.5273 6.74 12.1393 6.74133 11.8993 6.50666L10.6833 5.31666C10.2427 4.87599 10 4.29 10 3.66666C10 3.04333 10.2427 2.458 10.6833 2.01666ZM11.3327 3.66266C11.3327 3.11066 11.7807 2.66266 12.3327 2.66266C12.8847 2.66266 13.3327 3.11066 13.3327 3.66266C13.3327 4.21466 12.8847 4.66266 12.3327 4.66266C11.7807 4.66266 11.3327 4.21466 11.3327 3.66266Z" fill="#2AA64C"/>
</svg>
