<svg width="16" height="15" viewBox="0 0 16 15" fill="none" xmlns="http://www.w3.org/2000/svg">
<path d="M2.66664 14.6667C2.40381 14.6674 2.14345 14.6159 1.90062 14.5153C1.6578 14.4147 1.43733 14.267 1.25197 14.0807L0.22264 13.1647C0.090562 13.0469 0.0106722 12.8815 0.00054523 12.7048C-0.00958173 12.5282 0.0508837 12.3547 0.16864 12.2227C0.286396 12.0906 0.451797 12.0107 0.628456 12.0006C0.805115 11.9904 0.978562 12.0509 1.11064 12.1687L2.16731 13.1113C2.2278 13.1793 2.30155 13.2341 2.38402 13.2725C2.4665 13.3108 2.55595 13.3319 2.64688 13.3344C2.7378 13.3369 2.82828 13.3208 2.91274 13.287C2.99719 13.2532 3.07384 13.2025 3.13797 13.138L5.53797 10.8507C5.60066 10.7869 5.67553 10.7364 5.75813 10.7022C5.84073 10.668 5.92937 10.6507 6.01878 10.6514C6.10819 10.6522 6.19654 10.6709 6.27857 10.7064C6.3606 10.742 6.43464 10.7937 6.49628 10.8585C6.55792 10.9232 6.6059 10.9998 6.63736 11.0834C6.66883 11.1671 6.68314 11.2563 6.67944 11.3456C6.67574 11.435 6.65411 11.5227 6.61584 11.6035C6.57756 11.6843 6.52342 11.7565 6.45664 11.816L4.06664 14.092C3.88249 14.2751 3.66406 14.4201 3.42383 14.5187C3.18361 14.6173 2.92631 14.6676 2.66664 14.6667ZM15.3333 14H8.66664C8.48983 14 8.32026 13.9298 8.19524 13.8047C8.07021 13.6797 7.99997 13.5101 7.99997 13.3333C7.99997 13.1565 8.07021 12.9869 8.19524 12.8619C8.32026 12.7369 8.48983 12.6667 8.66664 12.6667H15.3333C15.5101 12.6667 15.6797 12.7369 15.8047 12.8619C15.9297 12.9869 16 13.1565 16 13.3333C16 13.5101 15.9297 13.6797 15.8047 13.8047C15.6797 13.9298 15.5101 14 15.3333 14ZM2.66664 9.33333C2.40381 9.33402 2.14345 9.28258 1.90062 9.182C1.6578 9.08141 1.43733 8.93367 1.25197 8.74733L0.195307 7.69066C0.0738678 7.56493 0.00667151 7.39653 0.00819046 7.22173C0.0097094 7.04693 0.079822 6.87972 0.203427 6.75612C0.327033 6.63251 0.494241 6.5624 0.669039 6.56088C0.843837 6.55936 1.01224 6.62656 1.13797 6.748L2.19531 7.80466C2.32222 7.92602 2.49105 7.99374 2.66664 7.99374C2.84223 7.99374 3.01106 7.92602 3.13797 7.80466L5.53797 5.51733C5.66598 5.39515 5.83729 5.32883 6.0142 5.33296C6.19111 5.33708 6.35913 5.41132 6.48131 5.53933C6.60348 5.66734 6.6698 5.83864 6.66568 6.01555C6.66155 6.19246 6.58732 6.36049 6.45931 6.48266L4.06664 8.75866C3.88249 8.94174 3.66406 9.08673 3.42383 9.18533C3.18361 9.28394 2.92631 9.33423 2.66664 9.33333ZM15.3333 8.66666H8.66664C8.48983 8.66666 8.32026 8.59642 8.19524 8.4714C8.07021 8.34638 7.99997 8.17681 7.99997 8C7.99997 7.82318 8.07021 7.65362 8.19524 7.52859C8.32026 7.40357 8.48983 7.33333 8.66664 7.33333H15.3333C15.5101 7.33333 15.6797 7.40357 15.8047 7.52859C15.9297 7.65362 16 7.82318 16 8C16 8.17681 15.9297 8.34638 15.8047 8.4714C15.6797 8.59642 15.5101 8.66666 15.3333 8.66666ZM2.66664 4C2.40381 4.00069 2.14345 3.94925 1.90062 3.84866C1.6578 3.74808 1.43733 3.60034 1.25197 3.414L0.22264 2.498C0.090562 2.38024 0.0106722 2.21484 0.00054523 2.03818C-0.00958173 1.86152 0.0508837 1.68807 0.16864 1.556C0.286396 1.42392 0.451797 1.34403 0.628456 1.3339C0.805115 1.32377 0.978562 1.38424 1.11064 1.502L2.16731 2.44466C2.2278 2.51259 2.30155 2.56743 2.38402 2.60579C2.4665 2.64415 2.55595 2.66523 2.64688 2.66773C2.7378 2.67022 2.82828 2.65409 2.91274 2.62031C2.99719 2.58654 3.07384 2.53584 3.13797 2.47133L5.54064 0.183996C5.66984 0.068976 5.83868 0.00867518 6.01151 0.0158298C6.18434 0.0229845 6.34762 0.0970345 6.46687 0.222339C6.58611 0.347644 6.65199 0.514392 6.65058 0.687363C6.64917 0.860335 6.58058 1.02599 6.45931 1.14933L4.06664 3.42533C3.88249 3.60841 3.66406 3.75339 3.42383 3.852C3.18361 3.95061 2.92631 4.0009 2.66664 4ZM15.3333 3.33333H8.66664C8.48983 3.33333 8.32026 3.26309 8.19524 3.13807C8.07021 3.01304 7.99997 2.84347 7.99997 2.66666C7.99997 2.48985 8.07021 2.32028 8.19524 2.19526C8.32026 2.07023 8.48983 2 8.66664 2H15.3333C15.5101 2 15.6797 2.07023 15.8047 2.19526C15.9297 2.32028 16 2.48985 16 2.66666C16 2.84347 15.9297 3.01304 15.8047 3.13807C15.6797 3.26309 15.5101 3.33333 15.3333 3.33333Z" fill="#181725"/>
</svg>
