<svg width="66" height="72" viewBox="0 0 66 72" fill="none" xmlns="http://www.w3.org/2000/svg">
<g filter="url(#filter0_d_1_82)">
<path d="M13.2818 7.34401C12 9.82942 12 13.083 12 19.5902V23.9058C12 30.4129 12 33.6665 13.2818 36.1519C14.4092 38.3382 16.2083 40.1156 18.4211 41.2296C19.9412 41.9948 21.7453 42.2976 24.3883 42.4175C24.6556 42.6846 24.9464 42.9719 25.2621 43.2838L27.4332 45.4289C29.4292 47.4009 30.4271 48.3869 31.5779 48.7563C32.5902 49.0812 33.6805 49.0812 34.6928 48.7563C35.8436 48.3869 36.8415 47.4009 38.8375 45.4289L41.0086 43.2838C41.3298 42.9665 41.6251 42.6747 41.8962 42.4037C44.3853 42.275 46.114 41.967 47.5789 41.2296C49.7917 40.1156 51.5908 38.3382 52.7182 36.1519C54 33.6665 54 30.4129 54 23.9058V19.5902C54 13.083 54 9.82942 52.7182 7.34401C51.5908 5.15778 49.7917 3.38032 47.5789 2.26638C45.0633 1 41.7702 1 35.184 1H30.816C24.2298 1 20.9367 1 18.4211 2.26638C16.2083 3.38032 14.4092 5.15778 13.2818 7.34401Z" fill="#2AA64C"/>
<path d="M33 24.791C34.7669 24.791 36.1992 23.4286 36.1992 21.748C36.1992 20.0674 34.7669 18.7049 33 18.7049C31.2331 18.7049 29.8008 20.0674 29.8008 21.748C29.8008 23.4286 31.2331 24.791 33 24.791Z" fill="white"/>
<path d="M42.1547 18.939V24.5569C42.1547 24.619 42.1806 24.6785 42.2268 24.7224C42.2729 24.7663 42.3355 24.791 42.4008 24.791H45.6V18.7049H42.4008C42.3355 18.7049 42.2729 18.7296 42.2268 18.7735C42.1806 18.8174 42.1547 18.8769 42.1547 18.939Z" fill="white"/>
<path d="M32.2617 26.1398C31.1634 25.9729 30.1637 25.439 29.4419 24.6341C28.7202 23.8292 28.3237 22.8059 28.3237 21.748C28.3237 20.6901 28.7202 19.6668 29.4419 18.8619C30.1637 18.0569 31.1634 17.5231 32.2617 17.3562V12.6189H22.1227C21.6658 12.6189 21.2276 12.7915 20.9045 13.0988C20.5815 13.4061 20.4 13.8229 20.4 14.2574V17.3005H23.5992C23.8254 17.3005 24.0494 17.3428 24.2584 17.4252C24.4674 17.5075 24.6574 17.6282 24.8173 17.7804C24.9773 17.9325 25.1042 18.1132 25.1907 18.312C25.2773 18.5108 25.3219 18.7238 25.3219 18.939V24.5569C25.3219 24.7721 25.2773 24.9852 25.1907 25.184C25.1042 25.3828 24.9773 25.5634 24.8173 25.7156C24.6574 25.8677 24.4674 25.9884 24.2584 26.0708C24.0494 26.1531 23.8254 26.1955 23.5992 26.1955H20.4V29.2385C20.4 29.6731 20.5815 30.0899 20.9045 30.3972C21.2276 30.7044 21.6658 30.8771 22.1227 30.8771H32.2617V26.1398Z" fill="white"/>
<path d="M42.4008 26.1955C41.9439 26.1955 41.5057 26.0229 41.1827 25.7156C40.8596 25.4083 40.6781 24.9915 40.6781 24.5569V18.939C40.6781 18.5044 40.8596 18.0877 41.1827 17.7804C41.5057 17.4731 41.9439 17.3005 42.4008 17.3005H45.6V14.2574C45.6 13.8229 45.4185 13.4061 45.0954 13.0988C44.7724 12.7915 44.3342 12.6189 43.8773 12.6189H33.7383V17.3562C34.8366 17.5231 35.8363 18.0569 36.5581 18.8619C37.2798 19.6668 37.6763 20.6901 37.6763 21.748C37.6763 22.8059 37.2798 23.8292 36.5581 24.6341C35.8363 25.439 34.8366 25.9729 33.7383 26.1398V30.8771H43.8773C44.3342 30.8771 44.7724 30.7044 45.0954 30.3972C45.4185 30.0899 45.6 29.6731 45.6 29.2385V26.1955H42.4008Z" fill="white"/>
<path d="M23.8453 24.5569V18.939C23.8453 18.8769 23.8194 18.8174 23.7732 18.7735C23.7271 18.7296 23.6645 18.7049 23.5992 18.7049H20.4V24.791H23.5992C23.6645 24.791 23.7271 24.7663 23.7732 24.7224C23.8194 24.6785 23.8453 24.619 23.8453 24.5569Z" fill="white"/>
</g>
<defs>
<filter id="filter0_d_1_82" x="0" y="0" width="66" height="72" filterUnits="userSpaceOnUse" color-interpolation-filters="sRGB">
<feFlood flood-opacity="0" result="BackgroundImageFix"/>
<feColorMatrix in="SourceAlpha" type="matrix" values="0 0 0 0 0 0 0 0 0 0 0 0 0 0 0 0 0 0 127 0" result="hardAlpha"/>
<feOffset dy="11"/>
<feGaussianBlur stdDeviation="6"/>
<feComposite in2="hardAlpha" operator="out"/>
<feColorMatrix type="matrix" values="0 0 0 0 0.293958 0 0 0 0 0.345833 0 0 0 0 0.325454 0 0 0 0.32 0"/>
<feBlend mode="normal" in2="BackgroundImageFix" result="effect1_dropShadow_1_82"/>
<feBlend mode="normal" in="SourceGraphic" in2="effect1_dropShadow_1_82" result="shape"/>
</filter>
</defs>
</svg>
